<svg width="40" height="39" viewBox="0 0 40 39" fill="none" xmlns="http://www.w3.org/2000/svg">
<path opacity="0.8" d="M20.0001 1.62518C15.1892 1.57752 10.5557 3.39417 7.11797 6.67589C3.68023 9.9576 1.71952 14.4359 1.66675 19.1264C1.68529 22.8333 2.90832 26.4391 5.16019 29.4259C7.41205 32.4127 10.5769 34.6268 14.2001 35.7502C15.1168 35.9127 15.4501 35.3764 15.4501 34.9052C15.4501 34.4339 15.4501 33.3939 15.4501 31.9314C10.3501 32.9877 9.26675 29.5914 9.26675 29.5914C8.92724 28.5253 8.20547 27.6139 7.23342 27.0239C5.56675 25.9514 7.36675 25.9677 7.36675 25.9677C7.94283 26.0428 8.49401 26.2441 8.97893 26.5564C9.46386 26.8688 9.86995 27.2842 10.1667 27.7714C10.684 28.6459 11.5326 29.2874 12.5301 29.5579C13.5276 29.8283 14.5941 29.7062 15.5001 29.2177C15.5933 28.3278 16.0066 27.4988 16.6668 26.8777C12.6001 26.4389 8.33342 24.9439 8.33342 18.2327C8.29705 16.482 8.96049 14.7862 10.1834 13.5039C9.62646 12.0009 9.69223 10.3454 10.3667 8.88893C10.3667 8.88893 11.9167 8.41768 15.3668 10.6764C18.3699 9.89617 21.5303 9.89617 24.5334 10.6764C28.0334 8.41768 29.5334 8.88893 29.5334 8.88893C30.2079 10.3454 30.2737 12.0009 29.7168 13.5039C30.9681 14.7627 31.6675 16.4472 31.6668 18.2002C31.6668 24.9277 27.3668 26.4064 23.3334 26.8452C23.7751 27.2632 24.1162 27.7715 24.3323 28.3335C24.5485 28.8954 24.6342 29.4971 24.5834 30.0952V34.8889C24.5834 34.8889 24.9168 35.9127 25.8334 35.7339C29.4463 34.6036 32.6005 32.389 34.8454 29.4064C37.0903 26.4238 38.3111 22.8259 38.3334 19.1264C38.2807 14.4359 36.3199 9.9576 32.8822 6.67589C29.4445 3.39417 24.811 1.57752 20.0001 1.62518Z" fill="#231F20"/>
</svg>
