<svg width="40" height="39" viewBox="0 0 40 39" fill="none" xmlns="http://www.w3.org/2000/svg">
<path opacity="0.8" fill-rule="evenodd" clip-rule="evenodd" d="M34.1007 33.2482H28.0863V23.0633C28.0863 20.0612 26.7626 19.1353 25.0935 19.1353C23.3093 19.1353 21.554 20.454 21.554 23.1475V33.2482H15.5396V14.618H21.3237V17.1993H21.4101C21.9856 16.077 24 14.1129 27.1079 14.1129C30.4748 14.1129 34.1007 16.0209 34.1007 21.7165V33.2482ZM8.92086 12.0086C6.9928 12.0086 5.46762 10.6058 5.46762 8.64173C5.46762 6.70576 6.9928 5.27482 8.92086 5.27482C10.8201 5.27482 12.3741 6.70576 12.3741 8.64173C12.3741 10.6058 10.8201 12.0086 8.92086 12.0086ZM5.89928 33.2201H11.9424V14.5899H5.89928V33.2201ZM37.0647 0H2.96403C1.32374 0 0 1.29065 0 2.88993V36.1381C0 37.7094 1.32374 39 2.96403 39H37.0647C38.6762 39 40 37.7094 40 36.1381V2.88993C40 1.29065 38.6762 0 37.0647 0Z" fill="black"/>
</svg>
