<svg width="40" height="39" viewBox="0 0 40 39" fill="none" xmlns="http://www.w3.org/2000/svg">
<g opacity="0.8">
<path d="M20 0C14.5631 0 13.8855 0.025597 11.7577 0.113358C9.6212 0.215746 8.17602 0.538755 6.90086 1.02144C5.5857 1.52363 4.46556 2.19037 3.35917 3.27519C2.24528 4.35392 1.55519 5.44606 1.04763 6.72834C0.552569 7.97162 0.221278 9.38067 0.116265 11.4638C0.0200025 13.5396 0 14.199 0 19.5C0 24.801 0.0262533 25.4617 0.116265 27.5362C0.221278 29.6132 0.552569 31.0284 1.04763 32.2717C1.56269 33.5539 2.24653 34.6461 3.35917 35.7248C4.46556 36.8109 5.5857 37.4837 6.90086 37.9786C8.17602 38.4552 9.62745 38.7843 11.7577 38.8866C13.8867 38.9805 14.5631 39 20 39C25.4369 39 26.1145 38.9744 28.2423 38.8866C30.3725 38.7843 31.824 38.4539 33.0991 37.9786C34.4143 37.4764 35.5344 36.8096 36.6408 35.7248C37.7547 34.6461 38.4448 33.56 38.9524 32.2717C39.4412 31.0284 39.7787 29.6132 39.8837 27.5362C39.98 25.4604 40 24.801 40 19.5C40 14.199 39.9737 13.5383 39.8837 11.4638C39.7787 9.38677 39.4399 7.96431 38.9524 6.72834C38.4373 5.44606 37.7535 4.35392 36.6408 3.27519C35.5344 2.18915 34.4205 1.51631 33.0991 1.02144C31.824 0.538755 30.3725 0.215746 28.2423 0.113358C26.1133 0.0195024 25.4369 0 20 0ZM20 3.51044C25.3394 3.51044 25.977 3.53604 28.0873 3.6238C30.0337 3.71278 31.0939 4.02969 31.7977 4.29785C32.7366 4.65255 33.3929 5.07185 34.103 5.75688C34.7993 6.4358 35.2294 7.08304 35.5932 7.99844C35.8682 8.68468 36.1933 9.71831 36.2845 11.6161C36.3745 13.6736 36.4008 14.2965 36.4008 19.5012C36.4008 24.7059 36.3745 25.3288 36.277 27.3863C36.172 29.2841 35.847 30.3178 35.5732 31.004C35.1944 31.9194 34.7718 32.5593 34.0742 33.2517C33.3704 33.9306 32.7003 34.3499 31.769 34.7046C31.0739 34.9727 29.9987 35.2897 28.0447 35.3786C25.9232 35.4664 25.2982 35.492 19.945 35.492C14.5918 35.492 13.968 35.4664 11.844 35.3713C9.89748 35.2689 8.8236 34.952 8.11976 34.6851C7.16964 34.3158 6.51831 33.9038 5.82073 33.2236C5.11689 32.5374 4.66933 31.884 4.32429 30.976C4.04425 30.2983 3.72421 29.25 3.62045 27.3449C3.54919 25.3008 3.51544 24.6669 3.51544 19.472C3.51544 14.2794 3.54919 13.6444 3.62045 11.5747C3.72421 9.66955 4.04425 8.62373 4.32429 7.94359C4.66933 7.016 5.11814 6.38217 5.82073 5.69593C6.51706 5.017 7.16964 4.5782 8.11976 4.23447C8.8236 3.96753 9.87123 3.65061 11.8252 3.55554C13.9467 3.48119 14.5718 3.45437 19.9175 3.45437L20 3.51044ZM20 9.49159C14.323 9.49159 9.73246 13.9735 9.73246 19.5024C9.73246 25.0375 14.3293 29.5133 20 29.5133C25.677 29.5133 30.2675 25.0314 30.2675 19.5024C30.2675 13.9674 25.6707 9.49159 20 9.49159ZM20 26.0028C16.3145 26.0028 13.3329 23.0958 13.3329 19.5024C13.3329 15.9091 16.3145 13.002 20 13.002C23.6855 13.002 26.6671 15.9091 26.6671 19.5024C26.6671 23.0958 23.6855 26.0028 20 26.0028ZM33.0816 9.09179C33.0816 10.3875 32.0002 11.4333 30.6776 11.4333C29.3487 11.4333 28.276 10.3863 28.276 9.09179C28.276 7.80341 29.3562 6.75516 30.6776 6.75516C31.999 6.75516 33.0816 7.80341 33.0816 9.09179Z" fill="black"/>
</g>
</svg>
